<svg xmlns="http://www.w3.org/2000/svg" viewBox="0 0 24 24" enable-background="new 0 0 24 24" width="48" height="48">
    <path d="M 1.9375 1.9375 L 1.28125 3.09375 L 4.6875 4.65625 C 4.7885 4.48725 4.91925 4.31825 5.03125 4.15625 L 1.9375 1.9375 z M 22.0625 1.9375 L 18.96875 4.15625 C 19.08075 4.31825 19.2115 4.48725 19.3125 4.65625 L 22.71875 3.0625 L 22.0625 1.9375 z M 12 2 C 8.134 2 5 5.134 5 9 C 5 13.38 9 14.91 9 19 L 15 17.9375 C 15 14.6385 19 13.38 19 9 C 19 5.134 15.866 2 12 2 z M 0 7.84375 L 0 9.15625 L 3.5 8.84375 C 3.503 8.62775 3.51125 8.42975 3.53125 8.21875 L 0 7.84375 z M 24 7.84375 L 20.46875 8.21875 C 20.48875 8.42875 20.497 8.62875 20.5 8.84375 L 24 9.15625 L 24 7.84375 z M 4.3125 12.5625 L 1.28125 13.90625 L 1.9375 15.0625 L 4.625 13.1875 C 4.516 12.9905 4.4115 12.7715 4.3125 12.5625 z M 19.65625 12.5625 C 19.55225 12.7685 19.45775 12.96525 19.34375 13.15625 L 22.0625 15.09375 L 22.71875 13.90625 L 19.65625 12.5625 z M 14.40625 18.5 L 9.40625 19.5 A 0.50871314 0.50871314 0 0 0 9.59375 20.5 L 14.59375 19.5 A 0.50871314 0.50871314 0 0 0 14.40625 18.5 z M 14.40625 20 L 9.40625 21 A 0.50871314 0.50871314 0 0 0 9.59375 22 L 14.59375 21 A 0.50871314 0.50871314 0 0 0 14.40625 20 z M 13.5 22 L 10.5 22.5 C 10.5 23.328 11.172 24 12 24 C 12.828 24 13.5 23.438 13.5 22 z"/>
</svg>